<?xml version="1.0" encoding="iso-8859-1"?>
<!-- Generator: Adobe Illustrator 19.0.0, SVG Export Plug-In . SVG Version: 6.00 Build 0)  -->
<svg xmlns="http://www.w3.org/2000/svg" xmlns:xlink="http://www.w3.org/1999/xlink" version="1.1" id="Capa_1" x="0px" y="0px" viewBox="0 0 464 464" style="enable-background:new 0 0 464 464;" xml:space="preserve" width="512px" height="512px">
<g>
	<path d="M432,88H32c-17.645,0-32,14.355-32,32v224c0,17.645,14.355,32,32,32h400c17.645,0,32-14.355,32-32V120   C464,102.355,449.645,88,432,88z M448,344c0,8.822-7.178,16-16,16H32c-8.822,0-16-7.178-16-16V120c0-8.822,7.178-16,16-16h400   c8.822,0,16,7.178,16,16V344z" fill="#FFFFFF"/>
	<path d="M144,176c0-17.645-14.355-32-32-32H80c-17.645,0-32,14.355-32,32v16c0,17.645,14.355,32,32,32h32c17.645,0,32-14.355,32-32   V176z M128,192c0,8.822-7.178,16-16,16H80c-8.822,0-16-7.178-16-16v-16c0-8.822,7.178-16,16-16h32c8.822,0,16,7.178,16,16V192z" fill="#FFFFFF"/>
	<path d="M112,176H80c-4.418,0-8,3.582-8,8s3.582,8,8,8h32c4.418,0,8-3.582,8-8S116.418,176,112,176z" fill="#FFFFFF"/>
	<path d="M216,272h-72c-4.418,0-8,3.582-8,8v24c0,4.418,3.582,8,8,8h72c4.418,0,8-3.582,8-8v-24C224,275.582,220.418,272,216,272z    M208,296h-56v-8h56V296z" fill="#FFFFFF"/>
	<path d="M320,272h-72c-4.418,0-8,3.582-8,8v24c0,4.418,3.582,8,8,8h72c4.418,0,8-3.582,8-8v-24C328,275.582,324.418,272,320,272z    M312,296h-56v-8h56V296z" fill="#FFFFFF"/>
	<path d="M416,272h-72c-4.418,0-8,3.582-8,8v24c0,4.418,3.582,8,8,8h72c4.418,0,8-3.582,8-8v-24C424,275.582,420.418,272,416,272z    M408,296h-56v-8h56V296z" fill="#FFFFFF"/>
	<path d="M120,272H48c-4.418,0-8,3.582-8,8v24c0,4.418,3.582,8,8,8h72c4.418,0,8-3.582,8-8v-24C128,275.582,124.418,272,120,272z    M112,296H56v-8h56V296z" fill="#FFFFFF"/>
	<path d="M320,208c-13.233,0-24-10.767-24-24s10.767-24,24-24c7.644,0,14.459,3.597,18.858,9.181   C337.021,173.768,336,178.766,336,184c0,22.056,17.944,40,40,40s40-17.944,40-40s-17.944-40-40-40   c-10.894,0-20.779,4.383-28,11.471C340.779,148.383,330.894,144,320,144c-22.056,0-40,17.944-40,40s17.944,40,40,40   c4.418,0,8-3.582,8-8S324.418,208,320,208z M376,160c13.233,0,24,10.767,24,24s-10.767,24-24,24c-7.64,0-14.452-3.593-18.851-9.173   C359.035,194.112,360,189.134,360,184c0-5.234-1.021-10.232-2.858-14.819C361.541,163.597,368.356,160,376,160z" fill="#FFFFFF"/>
</g>
<g>
</g>
<g>
</g>
<g>
</g>
<g>
</g>
<g>
</g>
<g>
</g>
<g>
</g>
<g>
</g>
<g>
</g>
<g>
</g>
<g>
</g>
<g>
</g>
<g>
</g>
<g>
</g>
<g>
</g>
</svg>
