<?xml version="1.0" encoding="iso-8859-1"?>
<!-- Generator: Adobe Illustrator 18.0.0, SVG Export Plug-In . SVG Version: 6.00 Build 0)  -->
<!DOCTYPE svg PUBLIC "-//W3C//DTD SVG 1.1//EN" "http://www.w3.org/Graphics/SVG/1.1/DTD/svg11.dtd">
<svg xmlns="http://www.w3.org/2000/svg" xmlns:xlink="http://www.w3.org/1999/xlink" version="1.1" id="Capa_1" x="0px" y="0px" viewBox="0 0 311.835 311.835" style="enable-background:new 0 0 311.835 311.835;" xml:space="preserve" width="512px" height="512px">
<g>
	<path d="M189.831,124.393c0,3.039,2.464,5.503,5.503,5.503c3.039,0,5.503-2.464,5.503-5.503c0-18.888-17.232-34.517-39.412-36.762   V77.092c0-3.039-2.464-5.504-5.503-5.504c-3.039,0-5.503,2.465-5.503,5.504v10.539c-22.185,2.244-39.42,17.874-39.42,36.762   c0,10.129,4.834,19.572,13.611,26.591c7.091,5.67,16.104,9.183,25.809,10.152v51.992c-16.093-2.024-28.414-12.765-28.414-25.677   c0-3.039-2.464-5.503-5.503-5.503c-3.039,0-5.503,2.464-5.503,5.503c0,18.883,17.235,34.509,39.42,36.752v10.547   c0,3.039,2.464,5.503,5.503,5.503c3.039,0,5.503-2.464,5.503-5.503v-10.547c22.18-2.244,39.412-17.869,39.412-36.752   c0-18.887-17.232-34.516-39.412-36.76V98.708C177.514,100.732,189.831,111.477,189.831,124.393z M122.005,124.393   c0-12.916,12.321-23.661,28.414-25.686v51.358C134.326,148.043,122.005,137.303,122.005,124.393z M189.831,187.452   c0,12.912-12.317,23.652-28.406,25.677v-51.36C177.514,163.793,189.831,174.537,189.831,187.452z" fill="#FFFFFF"/>
	<path d="M38.77,160.319l40.287-30.321c2.429-1.827,2.915-5.277,1.088-7.706c-1.827-2.428-5.278-2.915-7.706-1.088l-30.871,23.235   C47.394,86.614,96.883,40.987,155.922,40.987c3.039,0,5.503-2.465,5.503-5.504c0-3.039-2.464-5.502-5.503-5.502   c-33.193,0-64.518,12.801-88.203,36.045c-20.614,20.229-33.432,46.384-36.824,74.682L9.9,112.812   c-1.828-2.428-5.277-2.915-7.706-1.088c-2.429,1.827-2.915,5.277-1.088,7.706l29.954,39.801c0,0.002,0,0.002,0.001,0.003   c0.946,1.258,2.327,1.994,3.776,2.159c0.207,0.023,0.416,0.035,0.625,0.035c0.145,0,0.288-0.006,0.432-0.018   c1.008-0.078,2.006-0.436,2.873-1.089C38.768,160.321,38.769,160.32,38.77,160.319z" fill="#FFFFFF"/>
	<path d="M280.773,152.608L280.773,152.608L280.773,152.608c-0.008-0.012-0.018-0.02-0.025-0.031   c-0.682-0.893-1.584-1.521-2.575-1.862c-0.087-0.03-0.177-0.052-0.266-0.077c-0.081-0.023-0.16-0.051-0.241-0.07   c-1.182-0.284-2.448-0.175-3.591,0.354c-0.018,0.008-0.036,0.014-0.054,0.021c-0.076,0.036-0.149,0.081-0.225,0.121   c-0.25,0.133-0.495,0.281-0.729,0.457c0,0-0.001,0-0.002,0.001l-40.287,30.323c-2.428,1.827-2.915,5.277-1.087,7.705   c1.081,1.438,2.73,2.194,4.401,2.194c1.151,0,2.313-0.36,3.305-1.106l30.867-23.232c-5.806,57.926-55.041,103.443-114.344,103.443   c-3.039,0-5.503,2.464-5.503,5.504c0,3.039,2.464,5.502,5.503,5.502c33.453,0,64.953-12.976,88.697-36.537   c20.348-20.189,32.959-46.135,36.318-74.186l20.998,27.905c1.08,1.438,2.73,2.195,4.4,2.195c1.152,0,2.313-0.361,3.305-1.107   c2.429-1.827,2.916-5.277,1.088-7.706L280.773,152.608z" fill="#FFFFFF"/>
</g>
<g>
</g>
<g>
</g>
<g>
</g>
<g>
</g>
<g>
</g>
<g>
</g>
<g>
</g>
<g>
</g>
<g>
</g>
<g>
</g>
<g>
</g>
<g>
</g>
<g>
</g>
<g>
</g>
<g>
</g>
</svg>
